<?xml version="1.0" encoding="UTF-8"?>
<svg viewBox="0 0 18 24" version="1.1" xmlns="http://www.w3.org/2000/svg" xmlns:xlink="http://www.w3.org/1999/xlink">
    <!-- Generator: Sketch 49.3 (51167) - http://www.bohemiancoding.com/sketch -->
    <title>sql 2</title>
    <desc>Created with Sketch.</desc>
    <defs></defs>
    <g id="Page-1" stroke="none" stroke-width="1" fill="none" fill-rule="evenodd">
        <g id="sql" fill="#FFFFFF" fill-rule="nonzero">
            <path d="M9,0.75 C10.07,0.75 11.14,0.808666667 12.21,0.926 C12.398,0.949333333 12.6696667,0.986333333 13.025,1.037 C13.381,1.08766667 13.7736667,1.158 14.203,1.248 C14.633,1.338 15.0723333,1.44733333 15.521,1.576 C15.9703333,1.70533333 16.3786667,1.85766667 16.746,2.033 C17.1126667,2.209 17.4133333,2.40833333 17.648,2.631 C17.8826667,2.85366667 18,3.10166667 18,3.375 L18,20.625 C18,20.8983333 17.8826667,21.1463333 17.648,21.369 C17.414,21.5916667 17.1133333,21.791 16.746,21.967 C16.3793333,22.1423333 15.971,22.2946667 15.521,22.424 C15.0723333,22.5526667 14.633,22.662 14.203,22.752 C13.7736667,22.842 13.381,22.9143333 13.025,22.969 C12.6696667,23.0236667 12.3983333,23.0586667 12.211,23.074 C11.1403333,23.1913333 10.07,23.25 9,23.25 C7.922,23.25 6.852,23.1913333 5.79,23.074 C5.602,23.0586667 5.33033333,23.0236667 4.975,22.969 C4.619,22.9143333 4.22633333,22.842 3.797,22.752 C3.367,22.662 2.92766667,22.5526667 2.479,22.424 C2.02966667,22.2946667 1.62133333,22.1423333 1.254,21.967 C0.887333333,21.791 0.586666667,21.5916667 0.352,21.369 C0.117333333,21.1463333 0,20.8983333 0,20.625 L0,3.375 C0,3.10166667 0.117333333,2.85366667 0.352,2.631 C0.586,2.40833333 0.886666667,2.209 1.254,2.033 C1.62066667,1.85766667 2.029,1.70533333 2.479,1.576 C2.92766667,1.44733333 3.367,1.338 3.797,1.248 C4.22633333,1.158 4.619,1.088 4.975,1.038 C5.33033333,0.986666667 5.60166667,0.949333333 5.789,0.926 C6.85166667,0.808666667 7.922,0.75 9,0.75 Z M9,2.25 C8.492,2.25 7.92533333,2.26766667 7.3,2.303 C6.67533333,2.33766667 6.04066667,2.398 5.396,2.484 C4.752,2.57066667 4.12533333,2.686 3.516,2.83 C2.90666667,2.97466667 2.36733333,3.15633333 1.898,3.375 C2.38266667,3.60166667 2.92766667,3.78733333 3.533,3.932 C4.13833333,4.076 4.75933333,4.18933333 5.396,4.272 C6.03333333,4.354 6.66233333,4.41233333 7.283,4.447 C7.90433333,4.48233333 8.47666667,4.5 9,4.5 C9.52333333,4.5 10.0956667,4.48233333 10.717,4.447 C11.3376667,4.41233333 11.9666667,4.35366667 12.604,4.271 C13.2406667,4.189 13.8616667,4.07566667 14.467,3.931 C15.0723333,3.787 15.6173333,3.60166667 16.102,3.375 C15.6326667,3.15633333 15.0933333,2.97466667 14.484,2.83 C13.8746667,2.68533333 13.248,2.57 12.604,2.484 C11.9593333,2.398 11.3243333,2.33766667 10.699,2.303 C10.0743333,2.26766667 9.508,2.25 9,2.25 Z M16.5,16.829 C15.9846667,17.055 15.4083333,17.2423333 14.771,17.391 C14.1343333,17.539 13.4803333,17.658 12.809,17.748 C12.137,17.838 11.4726667,17.9023333 10.816,17.941 C10.16,17.9803333 9.55466667,18 9,18 C8.43,18 7.86166667,17.9823333 7.295,17.947 C6.72833333,17.9123333 6.19401513,17.8932254 5.602,17.801 C5.20732325,17.7395164 3.83998991,17.4155164 1.5,16.829 L1.5,20.379 C1.72666667,20.559 2.03133333,20.719 2.414,20.859 C2.79666667,20.9996667 3.22066667,21.121 3.686,21.223 C4.15066667,21.3243333 4.637,21.4083333 5.145,21.475 C5.65233333,21.5416667 6.14633333,21.5963333 6.627,21.639 C7.107,21.6816667 7.55433333,21.711 7.969,21.727 C8.38233333,21.7423333 8.726,21.75 9,21.75 C9.27333333,21.75 9.617,21.7423333 10.031,21.727 C10.445,21.711 10.8923333,21.6816667 11.373,21.639 C11.853,21.5956667 12.347,21.541 12.855,21.475 C13.363,21.4083333 13.8496667,21.3243333 14.315,21.223 C14.7796667,21.121 15.203,20.9996667 15.585,20.859 C15.9683333,20.719 16.2733333,20.559 16.5,20.379 L16.5,16.829 Z M16.5,4.828 C15.9846667,5.05466667 15.4083333,5.24233333 14.771,5.391 C14.1343333,5.539 13.4803333,5.658 12.809,5.748 C12.137,5.838 11.4726667,5.90233333 10.816,5.941 C10.16,5.98033333 9.55466667,6 9,6 C8.44533333,6 7.84,5.98033333 7.184,5.941 C6.52733333,5.90233333 5.863,5.838 5.191,5.748 C4.51966667,5.658 3.86566667,5.539 3.229,5.391 C2.59166667,5.24233333 2.01533333,5.05466667 1.5,4.828 L1.5,9.152 C2.33034209,9.47281797 2.96309328,9.6984043 3.39825358,9.82875898 C3.96309328,9.99795985 4.83034209,10.1710402 6,10.348 C6.5,10.4026667 7,10.4416667 7.5,10.465 C8,10.4883333 8.5,10.5 9,10.5 C9.28933333,10.5 9.641,10.4923333 10.055,10.477 C10.4683333,10.461 10.9116667,10.4316667 11.385,10.389 C11.8576667,10.3456667 12.344,10.291 12.844,10.225 C13.344,10.1583333 13.8243333,10.0743333 14.285,9.973 C14.7463333,9.871 15.1683333,9.75366667 15.551,9.621 C15.9336667,9.48766667 16.25,9.33133333 16.5,9.152 L16.5,4.828 Z M16.5,10.828 C15.9846667,11.0546667 15.4083333,11.2423333 14.771,11.391 C14.1343333,11.539 13.4803333,11.658 12.809,11.748 C12.137,11.838 11.4726667,11.9023333 10.816,11.941 C10.16,11.9803333 9.55466667,12 9,12 C8.44533333,12 7.84,11.9803333 7.184,11.941 C6.52733333,11.9023333 5.863,11.838 5.191,11.748 C4.51966667,11.658 3.86566667,11.539 3.229,11.391 C2.59166667,11.2423333 2.01533333,11.0546667 1.5,10.828 L1.5,15.152 C2.33034209,15.472818 2.96309328,15.6984043 3.39825358,15.828759 C3.96309328,15.9979599 4.83034209,16.1710402 6,16.348 C6.5,16.4026667 7,16.4416667 7.5,16.465 C8,16.4883333 8.5,16.5 9,16.5 C9.28933333,16.5 9.641,16.4923333 10.055,16.477 C10.4683333,16.461 10.9116667,16.4316667 11.385,16.389 C11.8576667,16.3456667 12.344,16.291 12.844,16.225 C13.344,16.1583333 13.8243333,16.0743333 14.285,15.973 C14.7463333,15.871 15.1683333,15.7536667 15.551,15.621 C15.9336667,15.4876667 16.25,15.3313333 16.5,15.152 L16.5,10.828 Z" id="Shape"></path>
        </g>
    </g>
</svg>